# This file uses centimeters as units for non-parametric coordinates.

mtllib L.mtl
g default
v -7.530527 19.229277 0.000000
v -1.901189 19.229277 0.000000
v -4.057596 3.430846 0.000000
v 2.343515 4.543095 0.000000
v 2.525103 1.070163 0.000000
v -6.554462 1.070163 0.000000
v -7.530527 19.229277 -0.637335
v -1.901189 19.229277 -0.637335
v -4.057596 3.430846 -0.637335
v 2.343515 4.543095 -0.637335
v 2.525103 1.070163 -0.637335
v -6.554462 1.070163 -0.637335
v -7.530527 19.229277 -1.274669
v -1.901189 19.229277 -1.274669
v -4.057596 3.430846 -1.274669
v 2.343515 4.543095 -1.274669
v 2.525103 1.070163 -1.274669
v -6.554462 1.070163 -1.274669
v -7.530527 19.229277 -1.912004
v -1.901189 19.229277 -1.912004
v -4.057596 3.430846 -1.912004
v 2.343515 4.543095 -1.912004
v 2.525103 1.070163 -1.912004
v -6.554462 1.070163 -1.912004
v -7.530527 19.229277 -2.549338
v -1.901189 19.229277 -2.549338
v -4.057596 3.430846 -2.549338
v 2.343515 4.543095 -2.549338
v 2.525103 1.070163 -2.549338
v -6.554462 1.070163 -2.549338
v -7.530527 19.229277 -3.186672
v -1.901189 19.229277 -3.186672
v -4.057596 3.430846 -3.186672
v 2.343515 4.543095 -3.186672
v 2.525103 1.070163 -3.186672
v -6.554462 1.070163 -3.186672
v -7.530527 19.229277 -3.824007
v -1.901189 19.229277 -3.824007
v -4.057596 3.430846 -3.824007
v 2.343515 4.543095 -3.824007
v 2.525103 1.070163 -3.824007
v -6.554462 1.070163 -3.824007
v -7.530527 19.229277 -4.461341
v -1.901189 19.229277 -4.461341
v -4.057596 3.430846 -4.461341
v 2.343515 4.543095 -4.461341
v 2.525103 1.070163 -4.461341
v -6.554462 1.070163 -4.461341
v -7.530527 19.229277 -5.098676
v -1.901189 19.229277 -5.098676
v -4.057596 3.430846 -5.098676
v 2.343515 4.543095 -5.098676
v 2.525103 1.070163 -5.098676
v -6.554462 1.070163 -5.098676
v -7.530527 19.229277 -5.736011
v -1.901189 19.229277 -5.736011
v -4.057596 3.430846 -5.736011
v 2.343515 4.543095 -5.736011
v 2.525103 1.070163 -5.736011
v -6.554462 1.070163 -5.736011
v -7.530527 19.229277 -6.373345
v -1.901189 19.229277 -6.373345
v -4.057596 3.430846 -6.373345
v 2.343515 4.543095 -6.373345
v 2.525103 1.070163 -6.373345
v -6.554462 1.070163 -6.373345
vt 0.095715 1.000000
vt 0.095715 0.900000
vt 0.000000 0.900000
vt 0.000000 1.000000
vt 0.366823 1.000000
vt 0.366823 0.900000
vt 0.477290 1.000000
vt 0.477290 0.900000
vt 0.536421 1.000000
vt 0.536421 0.900000
vt 0.690799 1.000000
vt 0.690799 0.900000
vt 1.000000 1.000000
vt 1.000000 0.900000
vt 0.095715 0.800000
vt 0.000000 0.800000
vt 0.366823 0.800000
vt 0.477290 0.800000
vt 0.536421 0.800000
vt 0.690799 0.800000
vt 1.000000 0.800000
vt 0.095715 0.700000
vt 0.000000 0.700000
vt 0.366823 0.700000
vt 0.477290 0.700000
vt 0.536421 0.700000
vt 0.690799 0.700000
vt 1.000000 0.700000
vt 0.095715 0.600000
vt 0.000000 0.600000
vt 0.366823 0.600000
vt 0.477290 0.600000
vt 0.536421 0.600000
vt 0.690799 0.600000
vt 1.000000 0.600000
vt 0.095715 0.500000
vt 0.000000 0.500000
vt 0.366823 0.500000
vt 0.477290 0.500000
vt 0.536421 0.500000
vt 0.690799 0.500000
vt 1.000000 0.500000
vt 0.095715 0.400000
vt 0.000000 0.400000
vt 0.366823 0.400000
vt 0.477290 0.400000
vt 0.536421 0.400000
vt 0.690799 0.400000
vt 1.000000 0.400000
vt 0.095715 0.300000
vt 0.000000 0.300000
vt 0.366823 0.300000
vt 0.477290 0.300000
vt 0.536421 0.300000
vt 0.690799 0.300000
vt 1.000000 0.300000
vt 0.095715 0.200000
vt 0.000000 0.200000
vt 0.366823 0.200000
vt 0.477290 0.200000
vt 0.536421 0.200000
vt 0.690799 0.200000
vt 1.000000 0.200000
vt 0.095715 0.100000
vt 0.000000 0.100000
vt 0.366823 0.100000
vt 0.477290 0.100000
vt 0.536421 0.100000
vt 0.690799 0.100000
vt 1.000000 0.100000
vt 0.095715 0.000000
vt 0.000000 0.000000
vt 0.366823 0.000000
vt 0.477290 0.000000
vt 0.536421 0.000000
vt 0.690799 0.000000
vt 1.000000 0.000000
vt 0.053751 0.000000
vt 0.553751 0.000000
vt 0.543751 0.191250
vt 0.191250 0.130000
vt 0.310001 1.000000
vt 0.950932 0.607927
vt 0.175983 0.853976
vt 0.176070 0.522676
vt 0.000000 0.543824
vt 0.079142 1.000000
vt 1.000000 0.890757
vn 0.000000 1.000000 0.000000
vn 0.000000 1.000000 0.000000
vn 0.000000 1.000000 0.000000
vn 0.000000 1.000000 0.000000
vn 0.990813 -0.135241 0.000000
vn 0.990813 -0.135241 0.000000
vn 0.990813 -0.135241 0.000000
vn 0.990813 -0.135241 0.000000
vn -0.171194 0.985238 0.000000
vn -0.171194 0.985238 0.000000
vn -0.171194 0.985238 0.000000
vn -0.171194 0.985238 0.000000
vn 0.998636 0.052216 0.000000
vn 0.998636 0.052216 0.000000
vn 0.998636 0.052216 0.000000
vn 0.998636 0.052216 0.000000
vn 0.000000 -1.000000 0.000000
vn 0.000000 -1.000000 0.000000
vn 0.000000 -1.000000 0.000000
vn 0.000000 -1.000000 0.000000
vn -0.998559 -0.053673 0.000000
vn -0.998559 -0.053673 0.000000
vn -0.998559 -0.053673 0.000000
vn -0.998559 -0.053673 0.000000
vn 0.000000 1.000000 0.000000
vn 0.000000 1.000000 0.000000
vn 0.000000 1.000000 0.000000
vn 0.000000 1.000000 0.000000
vn 0.990813 -0.135241 0.000000
vn 0.990813 -0.135241 0.000000
vn 0.990813 -0.135241 0.000000
vn 0.990813 -0.135241 0.000000
vn -0.171194 0.985238 0.000000
vn -0.171194 0.985238 0.000000
vn -0.171194 0.985238 0.000000
vn -0.171194 0.985238 0.000000
vn 0.998636 0.052216 0.000000
vn 0.998636 0.052216 0.000000
vn 0.998636 0.052216 0.000000
vn 0.998636 0.052216 0.000000
vn 0.000000 -1.000000 0.000000
vn 0.000000 -1.000000 0.000000
vn 0.000000 -1.000000 0.000000
vn 0.000000 -1.000000 0.000000
vn -0.998559 -0.053673 0.000000
vn -0.998559 -0.053673 0.000000
vn -0.998559 -0.053673 0.000000
vn -0.998559 -0.053673 0.000000
vn 0.000000 1.000000 0.000000
vn 0.000000 1.000000 0.000000
vn 0.000000 1.000000 0.000000
vn 0.000000 1.000000 0.000000
vn 0.990813 -0.135241 0.000000
vn 0.990813 -0.135241 0.000000
vn 0.990813 -0.135241 0.000000
vn 0.990813 -0.135241 0.000000
vn -0.171194 0.985238 0.000000
vn -0.171194 0.985238 0.000000
vn -0.171194 0.985238 0.000000
vn -0.171194 0.985238 0.000000
vn 0.998636 0.052216 0.000000
vn 0.998636 0.052216 0.000000
vn 0.998636 0.052216 0.000000
vn 0.998636 0.052216 0.000000
vn 0.000000 -1.000000 0.000000
vn 0.000000 -1.000000 0.000000
vn 0.000000 -1.000000 0.000000
vn 0.000000 -1.000000 0.000000
vn -0.998559 -0.053673 0.000000
vn -0.998559 -0.053673 0.000000
vn -0.998559 -0.053673 0.000000
vn -0.998559 -0.053673 0.000000
vn 0.000000 1.000000 0.000000
vn 0.000000 1.000000 0.000000
vn 0.000000 1.000000 0.000000
vn 0.000000 1.000000 0.000000
vn 0.990813 -0.135241 0.000000
vn 0.990813 -0.135241 0.000000
vn 0.990813 -0.135241 0.000000
vn 0.990813 -0.135241 0.000000
vn -0.171194 0.985238 0.000000
vn -0.171194 0.985237 0.000000
vn -0.171194 0.985237 0.000000
vn -0.171194 0.985238 0.000000
vn 0.998636 0.052216 0.000000
vn 0.998636 0.052216 0.000000
vn 0.998636 0.052216 0.000000
vn 0.998636 0.052216 0.000000
vn 0.000000 -1.000000 0.000000
vn 0.000000 -1.000000 0.000000
vn 0.000000 -1.000000 0.000000
vn 0.000000 -1.000000 0.000000
vn -0.998559 -0.053673 0.000000
vn -0.998559 -0.053673 0.000000
vn -0.998559 -0.053673 0.000000
vn -0.998559 -0.053673 0.000000
vn 0.000000 1.000000 0.000000
vn 0.000000 1.000000 0.000000
vn 0.000000 1.000000 0.000000
vn 0.000000 1.000000 0.000000
vn 0.990813 -0.135241 0.000000
vn 0.990813 -0.135241 0.000000
vn 0.990813 -0.135241 0.000000
vn 0.990813 -0.135241 0.000000
vn -0.171194 0.985237 0.000000
vn -0.171194 0.985237 0.000000
vn -0.171194 0.985237 0.000000
vn -0.171194 0.985237 0.000000
vn 0.998636 0.052216 0.000000
vn 0.998636 0.052216 0.000000
vn 0.998636 0.052216 0.000000
vn 0.998636 0.052216 0.000000
vn 0.000000 -1.000000 0.000000
vn 0.000000 -1.000000 0.000000
vn 0.000000 -1.000000 0.000000
vn 0.000000 -1.000000 0.000000
vn -0.998559 -0.053673 0.000000
vn -0.998559 -0.053673 0.000000
vn -0.998559 -0.053673 0.000000
vn -0.998559 -0.053673 0.000000
vn 0.000000 1.000000 0.000000
vn 0.000000 1.000000 0.000000
vn 0.000000 1.000000 0.000000
vn 0.000000 1.000000 0.000000
vn 0.990813 -0.135241 0.000000
vn 0.990813 -0.135241 0.000000
vn 0.990813 -0.135241 0.000000
vn 0.990813 -0.135241 0.000000
vn -0.171194 0.985237 0.000000
vn -0.171194 0.985237 0.000000
vn -0.171194 0.985237 0.000000
vn -0.171194 0.985237 0.000000
vn 0.998636 0.052216 0.000000
vn 0.998636 0.052216 0.000000
vn 0.998636 0.052216 0.000000
vn 0.998636 0.052216 0.000000
vn 0.000000 -1.000000 0.000000
vn 0.000000 -1.000000 0.000000
vn 0.000000 -1.000000 0.000000
vn 0.000000 -1.000000 0.000000
vn -0.998559 -0.053673 0.000000
vn -0.998559 -0.053673 0.000000
vn -0.998559 -0.053673 0.000000
vn -0.998559 -0.053673 0.000000
vn 0.000000 1.000000 0.000000
vn 0.000000 1.000000 0.000000
vn 0.000000 1.000000 0.000000
vn 0.000000 1.000000 0.000000
vn 0.990813 -0.135241 0.000000
vn 0.990813 -0.135241 0.000000
vn 0.990813 -0.135241 0.000000
vn 0.990813 -0.135241 0.000000
vn -0.171194 0.985237 0.000000
vn -0.171194 0.985238 0.000000
vn -0.171194 0.985238 0.000000
vn -0.171194 0.985237 0.000000
vn 0.998636 0.052216 0.000000
vn 0.998636 0.052216 0.000000
vn 0.998636 0.052216 0.000000
vn 0.998636 0.052216 0.000000
vn 0.000000 -1.000000 0.000000
vn 0.000000 -1.000000 0.000000
vn 0.000000 -1.000000 0.000000
vn 0.000000 -1.000000 0.000000
vn -0.998559 -0.053673 0.000000
vn -0.998559 -0.053673 0.000000
vn -0.998559 -0.053673 0.000000
vn -0.998559 -0.053673 0.000000
vn 0.000000 1.000000 0.000000
vn 0.000000 1.000000 0.000000
vn 0.000000 1.000000 0.000000
vn 0.000000 1.000000 0.000000
vn 0.990813 -0.135241 0.000000
vn 0.990813 -0.135241 0.000000
vn 0.990813 -0.135241 0.000000
vn 0.990813 -0.135241 0.000000
vn -0.171194 0.985238 0.000000
vn -0.171194 0.985238 0.000000
vn -0.171194 0.985238 0.000000
vn -0.171194 0.985238 0.000000
vn 0.998636 0.052216 0.000000
vn 0.998636 0.052216 0.000000
vn 0.998636 0.052216 0.000000
vn 0.998636 0.052216 0.000000
vn 0.000000 -1.000000 0.000000
vn 0.000000 -1.000000 0.000000
vn 0.000000 -1.000000 0.000000
vn 0.000000 -1.000000 0.000000
vn -0.998559 -0.053673 0.000000
vn -0.998559 -0.053673 0.000000
vn -0.998559 -0.053673 0.000000
vn -0.998559 -0.053673 0.000000
vn 0.000000 1.000000 0.000000
vn 0.000000 1.000000 0.000000
vn 0.000000 1.000000 0.000000
vn 0.000000 1.000000 0.000000
vn 0.990813 -0.135241 0.000000
vn 0.990813 -0.135241 0.000000
vn 0.990813 -0.135241 0.000000
vn 0.990813 -0.135241 0.000000
vn -0.171194 0.985238 0.000000
vn -0.171194 0.985237 0.000000
vn -0.171194 0.985237 0.000000
vn -0.171194 0.985238 0.000000
vn 0.998636 0.052216 0.000000
vn 0.998636 0.052216 0.000000
vn 0.998636 0.052216 0.000000
vn 0.998636 0.052216 0.000000
vn 0.000000 -1.000000 0.000000
vn 0.000000 -1.000000 0.000000
vn 0.000000 -1.000000 0.000000
vn 0.000000 -1.000000 0.000000
vn -0.998559 -0.053673 0.000000
vn -0.998559 -0.053673 0.000000
vn -0.998559 -0.053673 0.000000
vn -0.998559 -0.053673 0.000000
vn 0.000000 1.000000 0.000000
vn 0.000000 1.000000 0.000000
vn 0.000000 1.000000 0.000000
vn 0.000000 1.000000 0.000000
vn 0.990813 -0.135241 0.000000
vn 0.990813 -0.135241 0.000000
vn 0.990813 -0.135241 0.000000
vn 0.990813 -0.135241 0.000000
vn -0.171194 0.985237 0.000000
vn -0.171194 0.985237 0.000000
vn -0.171194 0.985237 0.000000
vn -0.171194 0.985237 0.000000
vn 0.998636 0.052216 0.000000
vn 0.998636 0.052216 0.000000
vn 0.998636 0.052216 0.000000
vn 0.998636 0.052216 0.000000
vn 0.000000 -1.000000 0.000000
vn 0.000000 -1.000000 0.000000
vn 0.000000 -1.000000 0.000000
vn 0.000000 -1.000000 0.000000
vn -0.998559 -0.053673 0.000000
vn -0.998559 -0.053673 0.000000
vn -0.998559 -0.053673 0.000000
vn -0.998559 -0.053673 0.000000
vn 0.000000 0.000000 1.000000
vn 0.000000 0.000000 1.000000
vn 0.000000 0.000000 1.000000
vn 0.000000 0.000000 -1.000000
vn 0.000000 0.000000 -1.000000
vn 0.000000 0.000000 -1.000000
vn 0.000000 0.000000 1.000000
vn 0.000000 0.000000 1.000000
vn 0.000000 0.000000 1.000000
vn 0.000000 0.000000 -1.000000
vn 0.000000 0.000000 -1.000000
vn 0.000000 0.000000 -1.000000
s off
g Mesh
usemtl Mat
f 2/1/1 8/2/2 7/3/3 1/4/4
f 3/5/5 9/6/6 8/2/7 2/1/8
f 4/7/9 10/8/10 9/6/11 3/5/12
f 5/9/13 11/10/14 10/8/15 4/7/16
f 6/11/17 12/12/18 11/10/19 5/9/20
f 1/13/21 7/14/22 12/12/23 6/11/24
f 8/2/25 14/15/26 13/16/27 7/3/28
f 9/6/29 15/17/30 14/15/31 8/2/32
f 10/8/33 16/18/34 15/17/35 9/6/36
f 11/10/37 17/19/38 16/18/39 10/8/40
f 12/12/41 18/20/42 17/19/43 11/10/44
f 7/14/45 13/21/46 18/20/47 12/12/48
f 14/15/49 20/22/50 19/23/51 13/16/52
f 15/17/53 21/24/54 20/22/55 14/15/56
f 16/18/57 22/25/58 21/24/59 15/17/60
f 17/19/61 23/26/62 22/25/63 16/18/64
f 18/20/65 24/27/66 23/26/67 17/19/68
f 13/21/69 19/28/70 24/27/71 18/20/72
f 20/22/73 26/29/74 25/30/75 19/23/76
f 21/24/77 27/31/78 26/29/79 20/22/80
f 22/25/81 28/32/82 27/31/83 21/24/84
f 23/26/85 29/33/86 28/32/87 22/25/88
f 24/27/89 30/34/90 29/33/91 23/26/92
f 19/28/93 25/35/94 30/34/95 24/27/96
f 26/29/97 32/36/98 31/37/99 25/30/100
f 27/31/101 33/38/102 32/36/103 26/29/104
f 28/32/105 34/39/106 33/38/107 27/31/108
f 29/33/109 35/40/110 34/39/111 28/32/112
f 30/34/113 36/41/114 35/40/115 29/33/116
f 25/35/117 31/42/118 36/41/119 30/34/120
f 32/36/121 38/43/122 37/44/123 31/37/124
f 33/38/125 39/45/126 38/43/127 32/36/128
f 34/39/129 40/46/130 39/45/131 33/38/132
f 35/40/133 41/47/134 40/46/135 34/39/136
f 36/41/137 42/48/138 41/47/139 35/40/140
f 31/42/141 37/49/142 42/48/143 36/41/144
f 38/43/145 44/50/146 43/51/147 37/44/148
f 39/45/149 45/52/150 44/50/151 38/43/152
f 40/46/153 46/53/154 45/52/155 39/45/156
f 41/47/157 47/54/158 46/53/159 40/46/160
f 42/48/161 48/55/162 47/54/163 41/47/164
f 37/49/165 43/56/166 48/55/167 42/48/168
f 44/50/169 50/57/170 49/58/171 43/51/172
f 45/52/173 51/59/174 50/57/175 44/50/176
f 46/53/177 52/60/178 51/59/179 45/52/180
f 47/54/181 53/61/182 52/60/183 46/53/184
f 48/55/185 54/62/186 53/61/187 47/54/188
f 43/56/189 49/63/190 54/62/191 48/55/192
f 50/57/193 56/64/194 55/65/195 49/58/196
f 51/59/197 57/66/198 56/64/199 50/57/200
f 52/60/201 58/67/202 57/66/203 51/59/204
f 53/61/205 59/68/206 58/67/207 52/60/208
f 54/62/209 60/69/210 59/68/211 53/61/212
f 49/63/213 55/70/214 60/69/215 54/62/216
f 56/64/217 62/71/218 61/72/219 55/65/220
f 57/66/221 63/73/222 62/71/223 56/64/224
f 58/67/225 64/74/226 63/73/227 57/66/228
f 59/68/229 65/75/230 64/74/231 58/67/232
f 60/69/233 66/76/234 65/75/235 59/68/236
f 55/70/237 61/77/238 66/76/239 60/69/240
s 1
usemtl Mat_1
f 3/81/241 5/79/242 4/80/243
s 2
usemtl Mat
f 61/88/244 63/84/245 66/87/246
s 1
usemtl Mat_1
f 6/78/247 2/82/248 1/4/249
f 6/78/247 3/81/241 2/82/248
f 6/78/247 5/79/242 3/81/241
s 2
usemtl Mat
f 62/83/250 63/84/245 61/88/244
f 66/87/246 63/84/245 65/86/251
f 65/86/251 63/84/245 64/85/252
