# This file uses centimeters as units for non-parametric coordinates.

mtllib space_invader.mtl
g default
v -0.224803 0.433785 0.278720
v 0.224803 0.433785 0.278720
v -0.224803 0.811087 0.278720
v 0.224803 0.811087 0.278720
v -0.224803 0.811087 -0.278720
v 0.224803 0.811087 -0.278720
v -0.224803 0.433785 -0.278720
v 0.224803 0.433785 -0.278720
vt 0.375000 0.000000
vt 0.625000 0.000000
vt 0.375000 0.250000
vt 0.625000 0.250000
vt 0.375000 0.500000
vt 0.625000 0.500000
vt 0.375000 0.750000
vt 0.625000 0.750000
vt 0.375000 1.000000
vt 0.625000 1.000000
vt 0.875000 0.000000
vt 0.875000 0.250000
vt 0.125000 0.000000
vt 0.125000 0.250000
vn 0.000000 0.000000 1.000000
vn 0.000000 0.000000 1.000000
vn 0.000000 0.000000 1.000000
vn 0.000000 0.000000 1.000000
vn 0.000000 1.000000 0.000000
vn 0.000000 1.000000 0.000000
vn 0.000000 1.000000 0.000000
vn 0.000000 1.000000 0.000000
vn 0.000000 0.000000 -1.000000
vn 0.000000 0.000000 -1.000000
vn 0.000000 0.000000 -1.000000
vn 0.000000 0.000000 -1.000000
vn 0.000000 -1.000000 0.000000
vn 0.000000 -1.000000 0.000000
vn 0.000000 -1.000000 0.000000
vn 0.000000 -1.000000 0.000000
vn 1.000000 0.000000 0.000000
vn 1.000000 0.000000 0.000000
vn 1.000000 0.000000 0.000000
vn 1.000000 0.000000 0.000000
vn -1.000000 0.000000 0.000000
vn -1.000000 0.000000 0.000000
vn -1.000000 0.000000 0.000000
vn -1.000000 0.000000 0.000000
s off
g pCube1
usemtl initialShadingGroup
f 1/1/1 2/2/2 4/4/3 3/3/4
f 3/3/5 4/4/6 6/6/7 5/5/8
f 5/5/9 6/6/10 8/8/11 7/7/12
f 7/7/13 8/8/14 2/10/15 1/9/16
f 2/2/17 8/11/18 6/12/19 4/4/20
f 7/13/21 1/1/22 3/3/23 5/14/24
g default
v -0.224803 0.981950 0.275870
v 0.224803 0.981950 0.275870
v -0.337000 2.416960 0.427281
v 0.315247 2.416960 0.459558
v -0.343111 2.416960 -0.479411
v 0.323752 2.416960 -0.537852
v -0.224803 0.981950 -0.232798
v 0.224803 0.981950 -0.232798
vt 0.375000 0.000000
vt 0.625000 0.000000
vt 0.375000 0.250000
vt 0.625000 0.250000
vt 0.375000 0.500000
vt 0.625000 0.500000
vt 0.375000 0.750000
vt 0.625000 0.750000
vt 0.375000 1.000000
vt 0.625000 1.000000
vt 0.875000 0.000000
vt 0.875000 0.250000
vt 0.125000 0.000000
vt 0.125000 0.250000
vn -0.029082 -0.116139 0.992807
vn -0.029082 -0.116139 0.992807
vn -0.029082 -0.116139 0.992807
vn -0.029082 -0.116139 0.992807
vn 0.000000 1.000000 -0.000000
vn 0.000000 1.000000 -0.000000
vn 0.000000 1.000000 -0.000000
vn 0.000000 1.000000 -0.000000
vn -0.051332 -0.188847 -0.980664
vn -0.051332 -0.188847 -0.980664
vn -0.051332 -0.188847 -0.980664
vn -0.051332 -0.188847 -0.980664
vn 0.000000 -1.000000 0.000000
vn 0.000000 -1.000000 0.000000
vn 0.000000 -1.000000 0.000000
vn 0.000000 -1.000000 0.000000
vn 0.997830 -0.065609 0.005635
vn 0.997830 -0.065609 0.005635
vn 0.997829 -0.065609 0.005635
vn 0.997830 -0.065609 0.005635
vn -0.996792 -0.079915 0.004304
vn -0.996792 -0.079915 0.004304
vn -0.996792 -0.079915 0.004304
vn -0.996792 -0.079915 0.004304
s off
g pCube2
usemtl initialShadingGroup
f 9/15/25 10/16/26 12/18/27 11/17/28
f 11/17/29 12/18/30 14/20/31 13/19/32
f 13/19/33 14/20/34 16/22/35 15/21/36
f 15/21/37 16/22/38 10/24/39 9/23/40
f 10/16/41 16/25/42 14/26/43 12/18/44
f 15/27/45 9/15/46 11/17/47 13/28/48
