# This file uses centimeters as units for non-parametric coordinates.

mtllib letter2.mtl
g default
v -0.064265 0.184333 0.500000
v 0.090260 0.184333 0.500000
v 0.244785 0.184333 0.500000
v 0.399311 0.184333 0.500000
v -0.064265 0.402598 0.500000
v 0.090260 0.402598 0.500000
v 0.244785 0.402598 0.500000
v 0.399311 0.402598 0.500000
v -0.064265 0.620864 0.500000
v 0.090260 0.620864 0.500000
v 0.244785 0.620864 0.500000
v 0.399311 0.620864 0.500000
v -0.064265 0.839129 0.500000
v 0.090260 0.839129 0.500000
v 0.244785 0.839129 0.500000
v 0.399311 0.839129 0.500000
v -0.064265 1.057395 0.500000
v 0.090260 1.057395 0.500000
v 0.244785 1.057395 0.500000
v 0.399311 1.057395 0.500000
v -0.064265 1.275661 0.500000
v 0.090260 1.275661 0.500000
v 0.244785 1.275661 0.500000
v 0.399311 1.275661 0.500000
v -0.064265 1.493927 0.500000
v 0.090260 1.493927 0.500000
v 0.244785 1.493927 0.500000
v 0.399311 1.493927 0.500000
v -0.064265 1.712192 0.500000
v 0.090260 1.712192 0.500000
v 0.244785 1.712192 0.500000
v 0.399311 1.712192 0.500000
v -0.064265 1.930458 0.500000
v 0.090260 1.930458 0.500000
v 0.244785 1.930458 0.500000
v 0.399311 1.930458 0.500000
v -0.064265 1.930458 0.166667
v 0.090260 1.930458 0.166667
v 0.244785 1.930458 0.166667
v 0.399311 1.930458 0.166667
v -0.064265 1.930458 -0.166667
v 0.090260 1.930458 -0.166667
v 0.244785 1.930458 -0.166667
v 0.399311 1.930458 -0.166667
v -0.064265 1.930458 -0.500000
v 0.090260 1.930458 -0.500000
v 0.244785 1.930458 -0.500000
v 0.399311 1.930458 -0.500000
v -0.064265 1.712192 -0.500000
v 0.090260 1.712192 -0.500000
v 0.244785 1.712192 -0.500000
v 0.399311 1.712192 -0.500000
v -0.064265 1.493927 -0.500000
v 0.090260 1.493927 -0.500000
v 0.244785 1.493927 -0.500000
v 0.399311 1.493927 -0.500000
v -0.064265 1.275661 -0.500000
v 0.090260 1.275661 -0.500000
v 0.244785 1.275661 -0.500000
v 0.399311 1.275661 -0.500000
v -0.064265 1.057395 -0.500000
v 0.090260 1.057395 -0.500000
v 0.244785 1.057395 -0.500000
v 0.399311 1.057395 -0.500000
v -0.064265 0.839129 -0.500000
v 0.090260 0.839129 -0.500000
v 0.244785 0.839129 -0.500000
v 0.399311 0.839129 -0.500000
v -0.064265 0.620864 -0.500000
v 0.090260 0.620864 -0.500000
v 0.244785 0.620864 -0.500000
v 0.399311 0.620864 -0.500000
v -0.064265 0.402598 -0.500000
v 0.090260 0.402598 -0.500000
v 0.244785 0.402598 -0.500000
v 0.399311 0.402598 -0.500000
v -0.064265 0.184333 -0.500000
v 0.090260 0.184333 -0.500000
v 0.244785 0.184333 -0.500000
v 0.399311 0.184333 -0.500000
v -0.064265 0.184333 -0.166667
v 0.090260 0.184333 -0.166667
v 0.244785 0.184333 -0.166667
v 0.399311 0.184333 -0.166667
v -0.064265 0.184333 0.166667
v 0.090260 0.184333 0.166667
v 0.244785 0.184333 0.166667
v 0.399311 0.184333 0.166667
v 0.399311 0.402598 -0.166667
v 0.399311 0.402598 0.166667
v 0.399311 0.620864 -0.166667
v 0.399311 0.620864 0.166667
v 0.399311 0.839129 -0.166667
v 0.399311 0.839129 0.166667
v 0.399311 1.057395 -0.166667
v 0.399311 1.057395 0.166667
v 0.399311 1.275661 -0.166667
v 0.399311 1.275661 0.166667
v 0.399311 1.493927 -0.166667
v 0.399311 1.493927 0.166667
v 0.399311 1.712192 -0.166667
v 0.399311 1.712192 0.166667
v -0.064265 0.402598 -0.166667
v -0.064265 0.402598 0.166667
v -0.064265 0.620864 -0.166667
v -0.064265 0.620864 0.166667
v -0.064265 0.839129 -0.166667
v -0.064265 0.839129 0.166667
v -0.064265 1.057395 -0.166667
v -0.064265 1.057395 0.166667
v -0.064265 1.275661 -0.166667
v -0.064265 1.275661 0.166667
v -0.064265 1.493927 -0.166667
v -0.064265 1.493927 0.166667
v -0.064265 1.712192 -0.166667
v -0.064265 1.712192 0.166667
vt 0.375000 0.000000
vt 0.458333 0.000000
vt 0.541667 0.000000
vt 0.625000 0.000000
vt 0.375000 0.031250
vt 0.458333 0.031250
vt 0.541667 0.031250
vt 0.625000 0.031250
vt 0.375000 0.062500
vt 0.458333 0.062500
vt 0.541667 0.062500
vt 0.625000 0.062500
vt 0.375000 0.093750
vt 0.458333 0.093750
vt 0.541667 0.093750
vt 0.625000 0.093750
vt 0.375000 0.125000
vt 0.458333 0.125000
vt 0.541667 0.125000
vt 0.625000 0.125000
vt 0.375000 0.156250
vt 0.458333 0.156250
vt 0.541667 0.156250
vt 0.625000 0.156250
vt 0.375000 0.187500
vt 0.458333 0.187500
vt 0.541667 0.187500
vt 0.625000 0.187500
vt 0.375000 0.218750
vt 0.458333 0.218750
vt 0.541667 0.218750
vt 0.625000 0.218750
vt 0.375000 0.250000
vt 0.458333 0.250000
vt 0.541667 0.250000
vt 0.625000 0.250000
vt 0.375000 0.333333
vt 0.458333 0.333333
vt 0.541667 0.333333
vt 0.625000 0.333333
vt 0.375000 0.416667
vt 0.458333 0.416667
vt 0.541667 0.416667
vt 0.625000 0.416667
vt 0.375000 0.500000
vt 0.458333 0.500000
vt 0.541667 0.500000
vt 0.625000 0.500000
vt 0.375000 0.531250
vt 0.458333 0.531250
vt 0.541667 0.531250
vt 0.625000 0.531250
vt 0.375000 0.562500
vt 0.458333 0.562500
vt 0.541667 0.562500
vt 0.625000 0.562500
vt 0.375000 0.593750
vt 0.458333 0.593750
vt 0.541667 0.593750
vt 0.625000 0.593750
vt 0.375000 0.625000
vt 0.458333 0.625000
vt 0.541667 0.625000
vt 0.625000 0.625000
vt 0.375000 0.656250
vt 0.458333 0.656250
vt 0.541667 0.656250
vt 0.625000 0.656250
vt 0.375000 0.687500
vt 0.458333 0.687500
vt 0.541667 0.687500
vt 0.625000 0.687500
vt 0.375000 0.718750
vt 0.458333 0.718750
vt 0.541667 0.718750
vt 0.625000 0.718750
vt 0.375000 0.750000
vt 0.458333 0.750000
vt 0.541667 0.750000
vt 0.625000 0.750000
vt 0.375000 0.833333
vt 0.458333 0.833333
vt 0.541667 0.833333
vt 0.625000 0.833333
vt 0.375000 0.916667
vt 0.458333 0.916667
vt 0.541667 0.916667
vt 0.625000 0.916667
vt 0.375000 1.000000
vt 0.458333 1.000000
vt 0.541667 1.000000
vt 0.625000 1.000000
vt 0.875000 0.000000
vt 0.791667 0.000000
vt 0.708333 0.000000
vt 0.875000 0.031250
vt 0.791667 0.031250
vt 0.708333 0.031250
vt 0.875000 0.062500
vt 0.791667 0.062500
vt 0.708333 0.062500
vt 0.875000 0.093750
vt 0.791667 0.093750
vt 0.708333 0.093750
vt 0.875000 0.125000
vt 0.791667 0.125000
vt 0.708333 0.125000
vt 0.875000 0.156250
vt 0.791667 0.156250
vt 0.708333 0.156250
vt 0.875000 0.187500
vt 0.791667 0.187500
vt 0.708333 0.187500
vt 0.875000 0.218750
vt 0.791667 0.218750
vt 0.708333 0.218750
vt 0.875000 0.250000
vt 0.791667 0.250000
vt 0.708333 0.250000
vt 0.125000 0.000000
vt 0.208333 0.000000
vt 0.291667 0.000000
vt 0.125000 0.031250
vt 0.208333 0.031250
vt 0.291667 0.031250
vt 0.125000 0.062500
vt 0.208333 0.062500
vt 0.291667 0.062500
vt 0.125000 0.093750
vt 0.208333 0.093750
vt 0.291667 0.093750
vt 0.125000 0.125000
vt 0.208333 0.125000
vt 0.291667 0.125000
vt 0.125000 0.156250
vt 0.208333 0.156250
vt 0.291667 0.156250
vt 0.125000 0.187500
vt 0.208333 0.187500
vt 0.291667 0.187500
vt 0.125000 0.218750
vt 0.208333 0.218750
vt 0.291667 0.218750
vt 0.125000 0.250000
vt 0.208333 0.250000
vt 0.291667 0.250000
vn 0.000000 0.000000 1.000000
vn 0.000000 0.000000 1.000000
vn 0.000000 0.000000 1.000000
vn 0.000000 0.000000 1.000000
vn 0.000000 0.000000 1.000000
vn 0.000000 0.000000 1.000000
vn 0.000000 0.000000 1.000000
vn 0.000000 0.000000 1.000000
vn 0.000000 0.000000 1.000000
vn 0.000000 0.000000 1.000000
vn 0.000000 0.000000 1.000000
vn 0.000000 0.000000 1.000000
vn 0.000000 0.000000 1.000000
vn 0.000000 0.000000 1.000000
vn 0.000000 0.000000 1.000000
vn 0.000000 0.000000 1.000000
vn 0.000000 0.000000 1.000000
vn 0.000000 0.000000 1.000000
vn 0.000000 0.000000 1.000000
vn 0.000000 0.000000 1.000000
vn 0.000000 0.000000 1.000000
vn 0.000000 0.000000 1.000000
vn 0.000000 0.000000 1.000000
vn 0.000000 0.000000 1.000000
vn 0.000000 0.000000 1.000000
vn 0.000000 0.000000 1.000000
vn 0.000000 0.000000 1.000000
vn 0.000000 0.000000 1.000000
vn 0.000000 0.000000 1.000000
vn 0.000000 0.000000 1.000000
vn 0.000000 0.000000 1.000000
vn 0.000000 0.000000 1.000000
vn 0.000000 0.000000 1.000000
vn 0.000000 0.000000 1.000000
vn 0.000000 0.000000 1.000000
vn 0.000000 0.000000 1.000000
vn 0.000000 1.000000 0.000000
vn 0.000000 1.000000 0.000000
vn 0.000000 1.000000 0.000000
vn 0.000000 1.000000 0.000000
vn 0.000000 1.000000 0.000000
vn 0.000000 1.000000 0.000000
vn 0.000000 1.000000 0.000000
vn 0.000000 1.000000 0.000000
vn 0.000000 1.000000 0.000000
vn 0.000000 1.000000 0.000000
vn 0.000000 1.000000 0.000000
vn 0.000000 1.000000 0.000000
vn 0.000000 1.000000 0.000000
vn 0.000000 1.000000 0.000000
vn 0.000000 1.000000 0.000000
vn 0.000000 1.000000 0.000000
vn 0.000000 0.000000 -1.000000
vn 0.000000 0.000000 -1.000000
vn 0.000000 0.000000 -1.000000
vn 0.000000 0.000000 -1.000000
vn 0.000000 0.000000 -1.000000
vn 0.000000 0.000000 -1.000000
vn 0.000000 0.000000 -1.000000
vn 0.000000 0.000000 -1.000000
vn 0.000000 0.000000 -1.000000
vn 0.000000 0.000000 -1.000000
vn 0.000000 0.000000 -1.000000
vn 0.000000 0.000000 -1.000000
vn 0.000000 0.000000 -1.000000
vn 0.000000 0.000000 -1.000000
vn 0.000000 0.000000 -1.000000
vn 0.000000 0.000000 -1.000000
vn 0.000000 0.000000 -1.000000
vn 0.000000 0.000000 -1.000000
vn 0.000000 0.000000 -1.000000
vn 0.000000 0.000000 -1.000000
vn 0.000000 0.000000 -1.000000
vn 0.000000 0.000000 -1.000000
vn 0.000000 0.000000 -1.000000
vn 0.000000 0.000000 -1.000000
vn 0.000000 0.000000 -1.000000
vn 0.000000 0.000000 -1.000000
vn 0.000000 0.000000 -1.000000
vn 0.000000 0.000000 -1.000000
vn 0.000000 0.000000 -1.000000
vn 0.000000 0.000000 -1.000000
vn 0.000000 0.000000 -1.000000
vn 0.000000 0.000000 -1.000000
vn 0.000000 0.000000 -1.000000
vn 0.000000 0.000000 -1.000000
vn 0.000000 0.000000 -1.000000
vn 0.000000 0.000000 -1.000000
vn 0.000000 -1.000000 0.000000
vn 0.000000 -1.000000 0.000000
vn 0.000000 -1.000000 0.000000
vn 0.000000 -1.000000 0.000000
vn 0.000000 -1.000000 0.000000
vn 0.000000 -1.000000 0.000000
vn 0.000000 -1.000000 0.000000
vn 0.000000 -1.000000 0.000000
vn 0.000000 -1.000000 0.000000
vn 0.000000 -1.000000 0.000000
vn 0.000000 -1.000000 0.000000
vn 0.000000 -1.000000 0.000000
vn 0.000000 -1.000000 0.000000
vn 0.000000 -1.000000 0.000000
vn 0.000000 -1.000000 0.000000
vn 0.000000 -1.000000 0.000000
vn 1.000000 0.000000 0.000000
vn 1.000000 0.000000 0.000000
vn 1.000000 0.000000 0.000000
vn 1.000000 0.000000 0.000000
vn 1.000000 0.000000 0.000000
vn 1.000000 0.000000 0.000000
vn 1.000000 0.000000 0.000000
vn 1.000000 0.000000 0.000000
vn 1.000000 0.000000 0.000000
vn 1.000000 0.000000 0.000000
vn 1.000000 0.000000 0.000000
vn 1.000000 0.000000 0.000000
vn 1.000000 0.000000 0.000000
vn 1.000000 0.000000 0.000000
vn 1.000000 0.000000 0.000000
vn 1.000000 0.000000 0.000000
vn 1.000000 0.000000 0.000000
vn 1.000000 0.000000 0.000000
vn 1.000000 0.000000 0.000000
vn 1.000000 0.000000 0.000000
vn 1.000000 0.000000 0.000000
vn 1.000000 0.000000 0.000000
vn 1.000000 0.000000 0.000000
vn 1.000000 0.000000 0.000000
vn 1.000000 0.000000 0.000000
vn 1.000000 0.000000 0.000000
vn 1.000000 0.000000 0.000000
vn 1.000000 0.000000 0.000000
vn 1.000000 0.000000 0.000000
vn 1.000000 0.000000 0.000000
vn 1.000000 0.000000 0.000000
vn 1.000000 0.000000 0.000000
vn 1.000000 0.000000 0.000000
vn 1.000000 0.000000 0.000000
vn 1.000000 0.000000 0.000000
vn 1.000000 0.000000 0.000000
vn -1.000000 0.000000 0.000000
vn -1.000000 0.000000 0.000000
vn -1.000000 0.000000 0.000000
vn -1.000000 0.000000 0.000000
vn -1.000000 0.000000 0.000000
vn -1.000000 0.000000 0.000000
vn -1.000000 0.000000 0.000000
vn -1.000000 0.000000 0.000000
vn -1.000000 0.000000 0.000000
vn -1.000000 0.000000 0.000000
vn -1.000000 0.000000 0.000000
vn -1.000000 0.000000 0.000000
vn -1.000000 0.000000 0.000000
vn -1.000000 0.000000 0.000000
vn -1.000000 0.000000 0.000000
vn -1.000000 0.000000 0.000000
vn -1.000000 0.000000 0.000000
vn -1.000000 0.000000 0.000000
vn -1.000000 0.000000 0.000000
vn -1.000000 0.000000 0.000000
vn -1.000000 0.000000 0.000000
vn -1.000000 0.000000 0.000000
vn -1.000000 0.000000 0.000000
vn -1.000000 0.000000 0.000000
vn -1.000000 0.000000 0.000000
vn -1.000000 0.000000 0.000000
vn -1.000000 -0.000000 0.000000
vn -1.000000 0.000000 0.000000
vn -1.000000 0.000000 0.000000
vn -1.000000 -0.000000 0.000000
vn -1.000000 0.000000 0.000000
vn -1.000000 -0.000000 0.000000
vn -1.000000 -0.000000 0.000000
vn -1.000000 0.000000 0.000000
vn -1.000000 -0.000000 0.000000
vn -1.000000 -0.000000 0.000000
vn 0.000000 -1.000000 0.000000
vn 0.000000 -1.000000 0.000000
vn 0.000000 -1.000000 0.000000
vn 0.000000 -1.000000 0.000000
vn 0.000000 -1.000000 0.000000
vn 0.000000 -1.000000 0.000000
vn 0.000000 -1.000000 0.000000
vn 0.000000 -1.000000 0.000000
vn 0.000000 0.000000 1.000000
vn 0.000000 0.000000 1.000000
vn 0.000000 0.000000 1.000000
vn 0.000000 0.000000 1.000000
vn 0.000000 1.000000 0.000000
vn 0.000000 1.000000 0.000000
vn 0.000000 1.000000 0.000000
vn 0.000000 1.000000 0.000000
vn 0.000000 1.000000 0.000000
vn 0.000000 1.000000 0.000000
vn 0.000000 1.000000 0.000000
vn 0.000000 1.000000 0.000000
vn 0.000000 -1.000000 0.000000
vn 0.000000 -1.000000 0.000000
vn 0.000000 -1.000000 0.000000
vn 0.000000 -1.000000 0.000000
vn 0.000000 -1.000000 0.000000
vn 0.000000 -1.000000 0.000000
vn 0.000000 -1.000000 0.000000
vn 0.000000 -1.000000 0.000000
vn 0.000000 1.000000 0.000000
vn 0.000000 1.000000 0.000000
vn 0.000000 1.000000 0.000000
vn 0.000000 1.000000 0.000000
vn 0.000000 1.000000 0.000000
vn 0.000000 1.000000 0.000000
vn 0.000000 1.000000 0.000000
vn 0.000000 1.000000 0.000000
vn 0.000000 0.000000 1.000000
vn 0.000000 0.000000 1.000000
vn 0.000000 0.000000 1.000000
vn 0.000000 0.000000 1.000000
s 1
g pCube1
usemtl initialShadingGroup
f 1/1/1 2/2/2 6/6/3 5/5/4
f 2/2/2 3/3/5 7/7/6 6/6/3
f 3/3/5 4/4/7 8/8/8 7/7/6
f 5/5/4 6/6/3 10/10/9 9/9/10
f 6/6/3 7/7/6 11/11/11 10/10/9
f 7/7/6 8/8/8 12/12/12 11/11/11
s 2
f 13/13/13 14/14/14 18/18/15 17/17/16
f 14/14/14 15/15/17 19/19/18 18/18/15
f 15/15/17 16/16/19 20/20/20 19/19/18
f 17/17/16 18/18/15 22/22/21 21/21/22
f 18/18/15 19/19/18 23/23/23 22/22/21
f 19/19/18 20/20/20 24/24/24 23/23/23
s 3
f 25/25/25 26/26/26 30/30/27 29/29/28
f 26/26/26 27/27/29 31/31/30 30/30/27
f 27/27/29 28/28/31 32/32/32 31/31/30
f 29/29/28 30/30/27 34/34/33 33/33/34
f 30/30/27 31/31/30 35/35/35 34/34/33
f 31/31/30 32/32/32 36/36/36 35/35/35
s 4
f 33/33/37 34/34/38 38/38/39 37/37/40
f 34/34/38 35/35/41 39/39/42 38/38/39
f 35/35/41 36/36/43 40/40/44 39/39/42
f 37/37/40 38/38/39 42/42/45 41/41/46
f 38/38/39 39/39/42 43/43/47 42/42/45
f 39/39/42 40/40/44 44/44/48 43/43/47
f 41/41/46 42/42/45 46/46/49 45/45/50
f 42/42/45 43/43/47 47/47/51 46/46/49
f 43/43/47 44/44/48 48/48/52 47/47/51
s 5
f 45/45/53 46/46/54 50/50/55 49/49/56
f 46/46/54 47/47/57 51/51/58 50/50/55
f 47/47/57 48/48/59 52/52/60 51/51/58
f 49/49/56 50/50/55 54/54/61 53/53/62
f 50/50/55 51/51/58 55/55/63 54/54/61
f 51/51/58 52/52/60 56/56/64 55/55/63
f 53/53/62 54/54/61 58/58/65 57/57/66
f 54/54/61 55/55/63 59/59/67 58/58/65
f 55/55/63 56/56/64 60/60/68 59/59/67
f 57/57/66 58/58/65 62/62/69 61/61/70
f 58/58/65 59/59/67 63/63/71 62/62/69
f 59/59/67 60/60/68 64/64/72 63/63/71
f 61/61/70 62/62/69 66/66/73 65/65/74
f 62/62/69 63/63/71 67/67/75 66/66/73
f 63/63/71 64/64/72 68/68/76 67/67/75
f 65/65/74 66/66/73 70/70/77 69/69/78
f 66/66/73 67/67/75 71/71/79 70/70/77
f 67/67/75 68/68/76 72/72/80 71/71/79
f 69/69/78 70/70/77 74/74/81 73/73/82
f 70/70/77 71/71/79 75/75/83 74/74/81
f 71/71/79 72/72/80 76/76/84 75/75/83
f 73/73/82 74/74/81 78/78/85 77/77/86
f 74/74/81 75/75/83 79/79/87 78/78/85
f 75/75/83 76/76/84 80/80/88 79/79/87
s 6
f 77/77/89 78/78/90 82/82/91 81/81/92
f 78/78/90 79/79/93 83/83/94 82/82/91
f 79/79/93 80/80/95 84/84/96 83/83/94
f 81/81/92 82/82/91 86/86/97 85/85/98
f 82/82/91 83/83/94 87/87/99 86/86/97
f 83/83/94 84/84/96 88/88/100 87/87/99
f 85/85/98 86/86/97 2/90/101 1/89/102
f 86/86/97 87/87/99 3/91/103 2/90/101
f 87/87/99 88/88/100 4/92/104 3/91/103
s 7
f 84/94/105 80/93/106 76/96/107 89/97/108
f 88/95/109 84/94/105 89/97/108 90/98/110
f 4/4/111 88/95/109 90/98/110 8/8/112
f 89/97/108 76/96/107 72/99/113 91/100/114
f 90/98/110 89/97/108 91/100/114 92/101/115
f 8/8/112 90/98/110 92/101/115 12/12/116
f 91/100/114 72/99/113 68/102/117 93/103/118
f 93/103/118 68/102/117 64/105/119 95/106/120
f 94/104/121 93/103/118 95/106/120 96/107/122
f 16/16/123 94/104/121 96/107/122 20/20/124
f 95/106/120 64/105/119 60/108/125 97/109/126
f 96/107/122 95/106/120 97/109/126 98/110/127
f 20/20/124 96/107/122 98/110/127 24/24/128
f 97/109/126 60/108/125 56/111/129 99/112/130
f 99/112/130 56/111/129 52/114/131 101/115/132
f 100/113/133 99/112/130 101/115/132 102/116/134
f 28/28/135 100/113/133 102/116/134 32/32/136
f 101/115/132 52/114/131 48/117/137 44/118/138
f 102/116/134 101/115/132 44/118/138 40/119/139
f 32/32/136 102/116/134 40/119/139 36/36/140
s 8
f 77/120/141 81/121/142 103/124/143 73/123/144
f 81/121/142 85/122/145 104/125/146 103/124/143
f 85/122/145 1/1/147 5/5/148 104/125/146
f 73/123/144 103/124/143 105/127/149 69/126/150
f 103/124/143 104/125/146 106/128/151 105/127/149
f 104/125/146 5/5/148 9/9/152 106/128/151
f 69/126/150 105/127/149 107/130/153 65/129/154
f 65/129/154 107/130/153 109/133/155 61/132/156
f 107/130/153 108/131/157 110/134/158 109/133/155
f 108/131/157 13/13/159 17/17/160 110/134/158
f 61/132/156 109/133/155 111/136/161 57/135/162
f 109/133/155 110/134/158 112/137/163 111/136/161
f 110/134/158 17/17/160 21/21/164 112/137/163
f 57/135/162 111/136/161 113/139/165 53/138/166
f 53/138/166 113/139/165 115/142/167 49/141/168
f 113/139/165 114/140/169 116/143/170 115/142/167
f 114/140/169 25/25/171 29/29/172 116/143/170
f 49/141/168 115/142/167 41/145/173 45/144/174
f 115/142/167 116/143/170 37/146/175 41/145/173
f 116/143/170 29/29/172 33/33/176 37/146/175
s off
f 99/112/177 100/113/178 114/140/179 113/139/180
f 100/113/181 28/28/182 25/25/183 114/140/184
f 97/109/185 99/112/186 113/139/187 111/136/188
f 98/110/189 97/109/190 111/136/191 112/137/192
f 24/24/193 98/110/194 112/137/195 21/21/196
f 94/104/197 16/16/198 13/13/199 108/131/200
f 93/103/201 94/104/202 108/131/203 107/130/204
f 12/12/205 92/101/206 106/128/207 9/9/208
f 92/101/209 91/100/210 105/127/211 106/128/212
f 91/100/213 93/103/214 107/130/215 105/127/216
