# This file uses centimeters as units for non-parametric coordinates.

mtllib letter5.mtl
g default
v -0.153598 0.040406 0.693494
v -0.051199 0.040406 0.693494
v 0.051199 0.040406 0.693494
v 0.153598 0.040406 0.693494
v -0.153598 0.435176 0.546932
v -0.051199 0.435176 0.546932
v 0.051199 0.435176 0.546932
v 0.153598 0.435176 0.546932
v -0.153598 0.829945 0.397309
v -0.051199 0.829945 0.397309
v 0.051199 0.829945 0.397309
v 0.153598 0.829945 0.397309
v -0.153598 1.224714 0.237816
v -0.051199 1.224714 0.237816
v 0.051199 1.224714 0.237816
v 0.153598 1.224714 0.237816
v -0.153598 1.619484 0.064043
v -0.051199 1.619484 0.064043
v 0.051199 1.619484 0.064043
v 0.153598 1.619484 0.064043
v -0.153598 1.619484 0.021348
v -0.051199 1.619484 0.021348
v 0.051199 1.619484 0.021348
v 0.153598 1.619484 0.021348
v -0.153598 1.619484 -0.021348
v -0.051199 1.619484 -0.021348
v 0.051199 1.619484 -0.021348
v 0.153598 1.619484 -0.021348
v -0.153598 1.619484 -0.064043
v -0.051199 1.619484 -0.064043
v 0.051199 1.619484 -0.064043
v 0.153598 1.619484 -0.064043
v -0.153598 1.224714 -0.237816
v -0.051199 1.224714 -0.237816
v 0.051199 1.224714 -0.237816
v 0.153598 1.224714 -0.237816
v -0.153598 0.829945 -0.397309
v -0.051199 0.829945 -0.397309
v 0.051199 0.829945 -0.397309
v 0.153598 0.829945 -0.397309
v -0.153598 0.435176 -0.546932
v -0.051199 0.435176 -0.546932
v 0.051199 0.435176 -0.546932
v 0.153598 0.435176 -0.546932
v -0.153598 0.040406 -0.693494
v -0.051199 0.040406 -0.693494
v 0.051199 0.040406 -0.693494
v 0.153598 0.040406 -0.693494
v -0.153598 0.040406 -0.406516
v -0.051199 0.040406 -0.406516
v 0.051199 0.040406 -0.406516
v 0.153598 0.040406 -0.406516
v -0.153598 0.040406 0.406516
v -0.051199 0.040406 0.406516
v 0.051199 0.040406 0.406516
v 0.153598 0.040406 0.406516
v 0.153598 0.541410 -0.270186
v 0.153598 0.541410 0.270186
v 0.153598 0.723710 -0.213598
v 0.153598 0.723710 0.213598
v 0.153598 1.224714 -0.029003
v 0.153598 1.224714 0.029003
v -0.153598 0.541410 -0.270186
v -0.153598 0.541410 0.270186
v -0.153598 0.723710 -0.206150
v -0.153598 0.723710 0.206150
v -0.153598 1.224714 -0.029003
v -0.153598 1.224714 0.029003
vt 0.375000 0.000000
vt 0.458333 0.000000
vt 0.541667 0.000000
vt 0.625000 0.000000
vt 0.375000 0.062500
vt 0.458333 0.062500
vt 0.541667 0.062500
vt 0.625000 0.062500
vt 0.375000 0.125000
vt 0.458333 0.125000
vt 0.541667 0.125000
vt 0.625000 0.125000
vt 0.375000 0.187500
vt 0.458333 0.187500
vt 0.541667 0.187500
vt 0.625000 0.187500
vt 0.375000 0.250000
vt 0.458333 0.250000
vt 0.541667 0.250000
vt 0.625000 0.250000
vt 0.375000 0.333333
vt 0.458333 0.333333
vt 0.541667 0.333333
vt 0.625000 0.333333
vt 0.375000 0.416667
vt 0.458333 0.416667
vt 0.541667 0.416667
vt 0.625000 0.416667
vt 0.375000 0.500000
vt 0.458333 0.500000
vt 0.541667 0.500000
vt 0.625000 0.500000
vt 0.375000 0.562500
vt 0.458333 0.562500
vt 0.541667 0.562500
vt 0.625000 0.562500
vt 0.375000 0.625000
vt 0.458333 0.625000
vt 0.541667 0.625000
vt 0.625000 0.625000
vt 0.375000 0.687500
vt 0.458333 0.687500
vt 0.541667 0.687500
vt 0.625000 0.687500
vt 0.375000 0.750000
vt 0.458333 0.750000
vt 0.541667 0.750000
vt 0.625000 0.750000
vt 0.375000 0.833333
vt 0.458333 0.833333
vt 0.541667 0.833333
vt 0.625000 0.833333
vt 0.375000 0.916667
vt 0.458333 0.916667
vt 0.541667 0.916667
vt 0.625000 0.916667
vt 0.375000 1.000000
vt 0.458333 1.000000
vt 0.541667 1.000000
vt 0.625000 1.000000
vt 0.875000 0.000000
vt 0.791667 0.000000
vt 0.708333 0.000000
vt 0.875000 0.062500
vt 0.791667 0.062500
vt 0.708333 0.062500
vt 0.875000 0.125000
vt 0.791667 0.125000
vt 0.708333 0.125000
vt 0.875000 0.187500
vt 0.791667 0.187500
vt 0.708333 0.187500
vt 0.875000 0.250000
vt 0.791667 0.250000
vt 0.708333 0.250000
vt 0.125000 0.000000
vt 0.208333 0.000000
vt 0.291667 0.000000
vt 0.125000 0.062500
vt 0.208333 0.062500
vt 0.291667 0.062500
vt 0.125000 0.125000
vt 0.208333 0.125000
vt 0.291667 0.125000
vt 0.125000 0.187500
vt 0.208333 0.187500
vt 0.291667 0.187500
vt 0.125000 0.250000
vt 0.208333 0.250000
vt 0.291667 0.250000
vn 0.000000 0.348047 0.937477
vn 0.000000 0.348047 0.937477
vn 0.000000 0.351235 0.936287
vn 0.000000 0.351235 0.936287
vn 0.000000 0.348047 0.937477
vn 0.000000 0.351235 0.936287
vn 0.000000 0.348047 0.937477
vn 0.000000 0.351235 0.936287
vn 0.000000 0.364569 0.931176
vn 0.000000 0.364569 0.931176
vn 0.000000 0.364569 0.931176
vn 0.000000 0.364569 0.931176
vn 0.000000 0.388879 0.921289
vn 0.000000 0.388879 0.921289
vn 0.000000 0.388879 0.921289
vn 0.000000 0.388879 0.921289
vn 0.000000 0.402884 0.915251
vn 0.000000 0.402884 0.915251
vn 0.000000 0.402884 0.915251
vn 0.000000 0.402884 0.915251
vn 0.000000 1.000000 0.000000
vn 0.000000 1.000000 0.000000
vn 0.000000 1.000000 0.000000
vn 0.000000 1.000000 0.000000
vn 0.000000 1.000000 0.000000
vn 0.000000 1.000000 0.000000
vn 0.000000 1.000000 0.000000
vn 0.000000 1.000000 0.000000
vn 0.000000 1.000000 0.000000
vn 0.000000 1.000000 0.000000
vn 0.000000 1.000000 0.000000
vn 0.000000 1.000000 0.000000
vn 0.000000 1.000000 0.000000
vn 0.000000 1.000000 0.000000
vn 0.000000 1.000000 0.000000
vn 0.000000 1.000000 0.000000
vn 0.000000 0.402884 -0.915251
vn 0.000000 0.402884 -0.915251
vn 0.000000 0.388879 -0.921289
vn 0.000000 0.388879 -0.921289
vn 0.000000 0.402884 -0.915251
vn 0.000000 0.388879 -0.921289
vn 0.000000 0.402884 -0.915251
vn 0.000000 0.388879 -0.921289
vn 0.000000 0.364569 -0.931176
vn 0.000000 0.364569 -0.931176
vn 0.000000 0.364569 -0.931176
vn 0.000000 0.364569 -0.931176
vn 0.000000 0.351235 -0.936287
vn 0.000000 0.351235 -0.936287
vn 0.000000 0.351235 -0.936287
vn 0.000000 0.351235 -0.936287
vn 0.000000 0.348047 -0.937477
vn 0.000000 0.348047 -0.937477
vn 0.000000 0.348047 -0.937477
vn 0.000000 0.348047 -0.937477
vn 0.000000 -1.000000 0.000000
vn 0.000000 -1.000000 0.000000
vn 0.000000 -1.000000 0.000000
vn 0.000000 -1.000000 0.000000
vn 0.000000 -1.000000 0.000000
vn 0.000000 -1.000000 0.000000
vn 0.000000 -1.000000 0.000000
vn 0.000000 -1.000000 0.000000
vn 0.000000 -1.000000 0.000000
vn 0.000000 -1.000000 0.000000
vn 0.000000 -1.000000 0.000000
vn 0.000000 -1.000000 0.000000
vn 0.000000 -1.000000 0.000000
vn 0.000000 -1.000000 0.000000
vn 0.000000 -1.000000 0.000000
vn 0.000000 -1.000000 0.000000
vn 1.000000 0.000000 0.000000
vn 1.000000 0.000000 0.000000
vn 1.000000 0.000000 0.000000
vn 1.000000 -0.000000 0.000000
vn 1.000000 0.000000 0.000000
vn 1.000000 0.000000 0.000000
vn 1.000000 -0.000000 0.000000
vn 1.000000 0.000000 0.000000
vn 1.000000 0.000000 0.000000
vn 1.000000 -0.000000 0.000000
vn 1.000000 -0.000000 0.000000
vn 1.000000 0.000000 0.000000
vn 1.000000 0.000000 0.000000
vn 1.000000 0.000000 0.000000
vn 1.000000 0.000000 0.000000
vn 1.000000 0.000000 0.000000
vn 1.000000 0.000000 0.000000
vn 1.000000 0.000000 0.000000
vn 1.000000 0.000000 0.000000
vn 1.000000 0.000000 0.000000
vn -1.000000 0.000000 0.000000
vn -1.000000 0.000000 0.000000
vn -1.000000 -0.000000 0.000000
vn -1.000000 0.000000 0.000000
vn -1.000000 0.000000 0.000000
vn -1.000000 0.000000 0.000000
vn -1.000000 0.000000 0.000000
vn -1.000000 -0.000000 0.000000
vn -1.000000 -0.000000 0.000000
vn -1.000000 -0.000000 0.000000
vn -1.000000 -0.000000 0.000000
vn -1.000000 0.000000 0.000000
vn -1.000000 -0.000000 0.000000
vn -1.000000 -0.000000 0.000000
vn -1.000000 -0.000000 0.000000
vn -1.000000 -0.000000 0.000000
vn -1.000000 0.000000 0.000000
vn -1.000000 0.000000 0.000000
vn -1.000000 -0.000000 0.000000
vn -1.000000 -0.000000 0.000000
vn 0.000000 1.000000 0.000000
vn 0.000000 1.000000 0.000000
vn 0.000000 1.000000 0.000000
vn 0.000000 1.000000 0.000000
vn 0.000000 -1.000000 0.000000
vn 0.000000 -1.000000 0.000000
vn 0.000000 -1.000000 0.000000
vn 0.000000 -1.000000 0.000000
vn 0.000000 -0.262565 -0.964914
vn 0.000000 -0.262565 -0.964914
vn 0.000000 -0.262565 -0.964914
vn 0.000000 -0.262565 -0.964914
vn 0.011402 -0.339545 -0.940521
vn 0.011402 -0.339545 -0.940521
vn 0.011402 -0.339545 -0.940521
vn 0.011402 -0.339545 -0.940521
vn 0.000000 -0.262565 0.964914
vn 0.000000 -0.262565 0.964914
vn 0.000000 -0.262565 0.964914
vn 0.000000 -0.262565 0.964914
vn 0.011402 -0.339545 0.940521
vn 0.011402 -0.339545 0.940521
vn 0.011402 -0.339545 0.940521
vn 0.011402 -0.339545 0.940521
vn 0.000000 -1.000000 0.000000
vn 0.000000 -1.000000 0.000000
vn 0.000000 -1.000000 0.000000
vn 0.000000 -1.000000 0.000000
s 1
g pCube1
usemtl initialShadingGroup
f 1/1/1 2/2/2 6/6/3 5/5/4
f 2/2/2 3/3/5 7/7/6 6/6/3
f 3/3/5 4/4/7 8/8/8 7/7/6
f 5/5/4 6/6/3 10/10/9 9/9/10
f 6/6/3 7/7/6 11/11/11 10/10/9
f 7/7/6 8/8/8 12/12/12 11/11/11
f 9/9/10 10/10/9 14/14/13 13/13/14
f 10/10/9 11/11/11 15/15/15 14/14/13
f 11/11/11 12/12/12 16/16/16 15/15/15
f 13/13/14 14/14/13 18/18/17 17/17/18
f 14/14/13 15/15/15 19/19/19 18/18/17
f 15/15/15 16/16/16 20/20/20 19/19/19
s 2
f 17/17/21 18/18/22 22/22/23 21/21/24
f 18/18/22 19/19/25 23/23/26 22/22/23
f 19/19/25 20/20/27 24/24/28 23/23/26
f 21/21/24 22/22/23 26/26/29 25/25/30
f 22/22/23 23/23/26 27/27/31 26/26/29
f 23/23/26 24/24/28 28/28/32 27/27/31
f 25/25/30 26/26/29 30/30/33 29/29/34
f 26/26/29 27/27/31 31/31/35 30/30/33
f 27/27/31 28/28/32 32/32/36 31/31/35
s 3
f 29/29/37 30/30/38 34/34/39 33/33/40
f 30/30/38 31/31/41 35/35/42 34/34/39
f 31/31/41 32/32/43 36/36/44 35/35/42
f 33/33/40 34/34/39 38/38/45 37/37/46
f 34/34/39 35/35/42 39/39/47 38/38/45
f 35/35/42 36/36/44 40/40/48 39/39/47
f 37/37/46 38/38/45 42/42/49 41/41/50
f 38/38/45 39/39/47 43/43/51 42/42/49
f 39/39/47 40/40/48 44/44/52 43/43/51
f 41/41/50 42/42/49 46/46/53 45/45/54
f 42/42/49 43/43/51 47/47/55 46/46/53
f 43/43/51 44/44/52 48/48/56 47/47/55
s 4
f 45/45/57 46/46/58 50/50/59 49/49/60
f 46/46/58 47/47/61 51/51/62 50/50/59
f 47/47/61 48/48/63 52/52/64 51/51/62
s 5
f 53/53/65 54/54/66 2/58/67 1/57/68
f 54/54/66 55/55/69 3/59/70 2/58/67
f 55/55/69 56/56/71 4/60/72 3/59/70
s 6
f 52/62/73 48/61/74 44/64/75 57/65/76
f 4/4/77 56/63/78 58/66/79 8/8/80
f 57/65/76 44/64/75 40/67/81 59/68/82
f 58/66/79 57/65/76 59/68/82 60/69/83
f 8/8/80 58/66/79 60/69/83 12/12/84
f 59/68/82 40/67/81 36/70/85 61/71/86
f 12/12/84 60/69/83 62/72/87 16/16/88
f 61/71/86 36/70/85 32/73/89 28/74/90
f 62/72/87 61/71/86 28/74/90 24/75/91
f 16/16/88 62/72/87 24/75/91 20/20/92
s 8
f 45/76/93 49/77/94 63/80/95 41/79/96
f 53/78/97 1/1/98 5/5/99 64/81/100
f 41/79/96 63/80/95 65/83/101 37/82/102
f 63/80/95 64/81/100 66/84/103 65/83/101
f 64/81/100 5/5/99 9/9/104 66/84/103
f 37/82/102 65/83/101 67/86/105 33/85/106
f 66/84/103 9/9/104 13/13/107 68/87/108
f 33/85/106 67/86/105 25/89/109 29/88/110
f 67/86/105 68/87/108 21/90/111 25/89/109
f 68/87/108 13/13/107 17/17/112 21/90/111
s off
f 60/69/113 59/68/114 65/83/115 66/84/116
f 57/65/117 58/66/118 64/81/119 63/80/120
f 58/66/121 56/63/122 53/78/123 64/81/124
f 62/72/125 60/69/126 66/84/127 68/87/128
f 52/62/129 57/65/130 63/80/131 49/77/132
f 59/68/133 61/71/134 67/86/135 65/83/136
f 61/71/137 62/72/138 68/87/139 67/86/140
